<?xml version="1.0" standalone="no"?>
<!DOCTYPE svg PUBLIC "-//W3C//DTD SVG 20010904//EN"
 "http://www.w3.org/TR/2001/REC-SVG-20010904/DTD/svg10.dtd">
<svg version="1.0" xmlns="http://www.w3.org/2000/svg"
 width="1004.000000pt" height="1004.000000pt" viewBox="0 0 1004.000000 1004.000000"
 preserveAspectRatio="xMidYMid meet">
<metadata>
Created by potrace 1.11, written by Peter Selinger 2001-2013
</metadata>
<g transform="translate(0.000000,1004.000000) scale(0.100000,-0.100000)"
fill="#000000" stroke="none">
<path d="M4908 8475 c-2 -2 -34 -5 -73 -9 -68 -5 -130 -13 -170 -21 -79 -15
-165 -35 -188 -44 -15 -6 -27 -8 -27 -5 0 4 -6 2 -12 -4 -7 -6 -17 -11 -23
-11 -20 -2 -110 -34 -119 -42 -6 -5 -16 -9 -22 -9 -12 0 -196 -88 -239 -113
-50 -30 -191 -121 -195 -126 -3 -4 -30 -25 -60 -47 -53 -40 -227 -207 -282
-271 -89 -105 -258 -364 -258 -397 0 -9 -4 -16 -10 -16 -5 0 -10 -4 -10 -10 0
-5 -13 -37 -29 -70 -16 -33 -27 -60 -25 -60 2 0 -4 -17 -14 -37 -11 -21 -25
-62 -33 -90 -7 -29 -17 -53 -21 -53 -5 0 -7 -4 -4 -9 3 -4 -5 -51 -18 -102
-13 -52 -27 -119 -30 -149 -4 -30 -10 -80 -13 -110 -12 -105 -7 -331 11 -474
14 -108 85 -382 106 -411 4 -5 11 -21 15 -35 9 -30 105 -233 114 -240 10 -8
42 -63 48 -82 3 -10 9 -18 14 -18 5 0 9 -4 9 -10 0 -13 62 -100 72 -100 4 0 8
-4 8 -10 0 -5 11 -26 25 -46 14 -20 25 -34 25 -30 0 4 12 -7 27 -26 40 -48
105 -119 126 -137 11 -9 38 -33 60 -55 50 -46 202 -160 272 -204 123 -77 376
-194 449 -207 20 -4 39 -11 42 -16 3 -5 10 -7 15 -3 5 3 15 1 22 -4 11 -9 162
-40 292 -61 33 -5 150 -8 260 -6 186 2 226 5 297 20 15 4 39 8 55 10 46 6 193
44 251 65 28 11 55 21 60 21 33 8 56 18 133 56 48 23 91 43 94 43 10 0 208
122 229 141 11 11 23 19 27 19 4 0 14 6 21 13 7 7 23 20 36 29 21 14 117 99
185 161 15 14 27 29 27 32 0 3 17 22 38 43 52 50 122 137 122 151 0 6 4 11 8
11 8 0 79 104 120 175 31 56 116 233 131 275 7 19 17 44 22 55 15 35 37 107
58 191 24 98 32 149 48 289 8 77 7 349 -1 395 -4 19 -7 42 -7 50 0 8 -5 38
-10 65 -5 28 -11 66 -14 85 -7 41 -43 176 -55 205 -5 11 -12 31 -15 45 -9 31
-27 73 -73 170 -19 41 -36 80 -38 87 -1 6 -14 28 -28 49 -14 21 -26 44 -26 51
0 7 -3 13 -8 13 -4 0 -16 17 -27 38 -11 20 -24 42 -30 48 -5 7 -19 25 -30 40
-100 142 -273 323 -390 409 -22 17 -42 32 -45 35 -13 13 -82 60 -150 102 -60
37 -277 148 -300 154 -5 1 -16 5 -75 27 -16 7 -33 12 -37 13 -5 1 -9 2 -10 4
-2 1 -10 3 -18 5 -8 2 -51 13 -94 25 -44 12 -89 24 -100 25 -12 2 -32 6 -46 9
-77 16 -212 28 -332 31 -75 1 -138 1 -140 0z"/>
<path d="M3267 3953 c-1 -1 -69 -3 -152 -4 -82 -2 -172 -6 -200 -11 -27 -4
-68 -9 -90 -12 -22 -2 -40 -5 -40 -6 0 -1 -8 -3 -19 -5 -10 -2 -41 -9 -70 -16
-28 -7 -58 -13 -66 -14 -8 -1 -22 -5 -30 -8 -37 -15 -156 -59 -165 -61 -23 -6
-134 -61 -190 -96 -34 -20 -69 -39 -78 -43 -9 -3 -17 -11 -17 -17 0 -5 -5 -10
-11 -10 -6 0 -30 -15 -53 -32 -22 -18 -47 -37 -54 -43 -52 -38 -218 -213 -263
-275 -29 -41 -56 -77 -59 -80 -9 -8 -51 -83 -63 -112 -6 -16 -15 -28 -19 -28
-4 0 -8 -6 -8 -12 0 -7 -11 -35 -24 -63 -23 -47 -68 -158 -73 -180 -1 -5 -7
-28 -13 -50 -6 -22 -13 -51 -16 -65 -2 -14 -9 -36 -14 -50 -5 -14 -14 -59 -21
-100 -6 -41 -13 -84 -15 -95 -21 -104 -20 -488 0 -615 2 -14 7 -47 11 -75 4
-27 11 -70 17 -95 5 -25 11 -54 14 -65 2 -11 7 -33 11 -50 4 -16 6 -36 4 -42
-1 -10 707 -13 3513 -13 1933 0 3517 3 3519 8 3 4 8 23 11 42 3 19 8 46 11 60
3 14 8 36 11 50 3 14 7 32 9 40 2 8 7 42 11 75 3 33 8 69 10 80 16 81 22 429
9 520 -3 22 -7 59 -10 81 -2 23 -7 55 -10 70 -4 25 -13 75 -19 109 -1 6 -4 15
-7 20 -3 6 -11 37 -18 70 -7 33 -17 69 -21 80 -4 11 -22 58 -40 105 -39 104
-151 317 -179 340 -3 3 -20 25 -36 50 -31 47 -208 229 -260 268 -111 83 -151
112 -158 112 -4 0 -20 8 -35 19 -37 25 -81 51 -87 52 -2 0 -31 13 -62 28 -32
16 -69 32 -83 36 -14 4 -29 11 -35 14 -5 4 -30 13 -55 20 -25 8 -62 20 -82 27
-21 8 -38 12 -38 10 0 -3 -15 0 -32 5 -37 11 -77 19 -128 24 -19 2 -35 5 -35
6 0 1 -16 3 -35 4 -19 2 -35 4 -35 5 0 9 -403 12 -1988 13 -1017 1 -1849 1
-1850 0z"/>
<path d="M8420 1109 c0 -4 3 -15 6 -24 5 -13 8 -14 15 -3 13 20 11 35 -6 35
-8 0 -15 -4 -15 -8z"/>
</g>
</svg>
